<?xml version="1.0" encoding="UTF-8"?>
<!-- viewBox="x_inicio y_inicio ancho alto" — ajusta los 4 números para recortar:
     x_inicio: cuánto cortar por la izquierda (0 = sin corte)
     y_inicio: cuánto cortar por arriba (0 = sin corte)
     ancho: zona visible desde x_inicio hacia la derecha
     alto: zona visible desde y_inicio hacia abajo
     Ejemplo actual: recorta ~35px de cada lado y ~85px de arriba -->
<svg id="Capa_1" xmlns="http://www.w3.org/2000/svg" version="1.1" viewBox="20 85 460 330">
  <!-- Generator: Adobe Illustrator 29.8.2, SVG Export Plug-In . SVG Version: 2.1.1 Build 3)  -->
  <defs>
    <style>
      .st0 {
        fill: #eeb952;
        stroke: #000;
      }
    </style>
  </defs>
  <path class="st0" d="M67.65,319.95c-2.76.58-2.08,4.24-3.14,6.33-4.64,9.11-16.37-3.12-4.09-5.83.9-1.19-3.2-2.07-3.83-2.64-2.81-2.54-1.22-7.8,2.58-7.83,5.14-.04,5.56,6.99,7.48,6.99h161.66c0,1.36.42,2.68-1.24,2.99-4.61.85-11.83-.46-16.69-.5l8.7,5.99c2.44,1.79,5.42,6.79,8.49,6.99,2.83.18,6.57-1.17,9.83-.03,1.24,1.1,1.91,3.64,3.62,3.97,3.21.63,12.7.17,16.47.01,1.04-.04,4.57-.23,5.31-.6,1.38-.68,2.59-2.96,3.72-3.29,4.17-1.24,8.11,1.63,12.61-1.83,4.62-3.56,8.6-9.97,15.43-10.23-.19-.91-.98-.93-1.73-1.01-5.43-.61-10.95.91-16.39.45-1.15-.38-.8-1.95-.82-2.92l152.22-.02c2.79.19,8.1,1.65,10.21-.71.79-.88.96-2.29,1.65-3.33,3.01-4.53,9.98-3.28,8.01,3.06-.98,3.15-6.68,2.93-6.68,3.75,1.56,1.26,3.35.48,5.15,1.82,6.62,4.91-2.4,12.58-6.76,4.76-1.36-2.44-.69-5.76-4.16-6.3l-54.52-.53c-.25,1.53.42.78,1.22,1,1.86.51,3.46.9,5.2,1.79,10.39,5.34,13.26,21.05,26.66,19.57,12.6-1.39,14.16-19.98,1.03-18.39-5.99.73-4.67,8.53-1.55,7.91.52-.1,3.48-5.14,4.59-.94,1.08,4.06-8.79,6.18-10.14-.35-2.44-11.79,16.7-11.67,18.59-2.66,2.83,13.47-11.25,21.49-22.54,15.07-1.19-.68-1.78-2.01-3.14-2.09,2.41,11.33-2.79,21.39-12.5,27.11-16.43,9.68-40.33,1.99-37.77-19.83,1.78-15.17,21.19-24.63,31.59-11.77,7.39,9.15-.77,26.03-11.91,20.87-6.33-2.93-5.75-13.1,2.11-11.83,1.35,3.2.53,4.72-2.91,3.42-.39,6.95,6.07,7.54,10.22,3,5.83-6.38,1.44-16.16-6.41-18.02-20.49-4.85-29.91,29.99-4.41,34.8,34.35,6.48,41.57-43.98,4.83-46.68-35.77-2.63-37.9,42.15-71.23,38.85-19.09-1.89-20.89-30.29-1.76-35.62,11.44-3.19,20.56,5.56,15.22,16.72-4.8,10.03-18.67,4.41-15.98-4.03.98-3.09,7.6-4.53,7.14-.33-.28,2.58-3.79,1.05-3.92,3.1-.16,2.53,2.89,3.75,5.03,3.53,9.89-1.03,8.26-18.97-5.01-16.51-18.36,3.39-17.17,28.73.83,30.6,23.01,2.39,31.96-26.64,49.98-35.58l6.5-2.22h-39.11c-.38,0-1.24-1.13-1.74.49,6.04.04,13.16,8.39,9.2,13.93-1.39,1.94-5.31,3.19-6.64.66-.62-3.93,3.28-1.3,4.2-2.61,1.07-12.2-17-12.18-25.46-11.51-6.75.53-16.51,6.54-20.07,12.31-.66,1.07-2.25,5.35-2.9,5.57h-52.42c-2.88-9.26-13.09-17.16-22.72-17.89-6.71-.51-22.96-.48-24.96,7.95-1.41,5.97,1.76,3.21,3.48,3.58,2.4.52-.64,6.59-5.18,3.17-4.22-3.18-1.3-10.04,2.23-12.69,1.93-1.45,4.54-1.83,6.23-3.48h-41.35c-.25,1.5.38.79,1.21,1,21.6,5.44,33.66,44.01,58.47,36.51,14.16-4.29,14.62-22.33,1.75-28.46-7.36-3.51-16.22-.64-15.06,8.59.73,5.79,8.9,8.99,11.04,4.15,1.49-3.39-1.76-1.27-3.32-2.4-1.21-.87-1.03-2.62-.33-3.75,9.41-3.64,8.26,11.33-.22,11.78-12.7.68-14.52-19.46-1.86-22.32,24.68-5.57,30.91,36.29,1.85,36.27-27.18-.02-33.61-42.43-67.72-39.37-26.36,2.36-34.07,37.37-6.71,46.05,14.78,4.69,31.37-4.76,27.13-21.65-4.46-17.82-30.38-16.58-28.16,1.26.94,7.55,12.77,11.33,12.46,1.73l-3.48.5c-.46-6.72,6.79-5.14,7.36.4.95,9.2-13.95,10.63-18.07,1.6-7.13-15.63,11.98-27.57,25.11-17.64,10.79,8.16,11.39,23.97.78,32.58-17.59,14.28-49.29-2.59-42.59-25.89-2.77,1.2-4.78,3.08-7.86,3.85-19.44,4.81-25.76-21.99-7.78-23.73,11.01-1.06,11.37,15.01,2.57,13.8-3.22-.44-6.28-3.59-2.04-5.33,1.17-.09,1.03,1.84,2.41,1.97,4,.38,4.08-6.75-1.04-7.47-10.25-1.46-12.85,11.07-4.37,16.83,5.21,3.54,11.74,1.03,16.12-2.65,3.6-3.03,6.05-7.84,9.49-10.93s8.47-5.84,12.92-6.27c.31-2-1.26-.5-1.75-.5h-53.8.05Z"/>
  <path class="st0" d="M348.37,226.05c-.34-4.6-1.73-10.72-5.73-13.7-2.13-1.58-5.94-1.58-5.01-4.99,1.33-4.92,6.32-2.54,9.97-2.46,4.98.11,12.14-1.05,16.48-.53,1.32.16,3.03.74,3.24,2.28.45,3.26-3.89,4.21-5.71,6.23-4.55,5.06-2.78,12.6-2.75,18.63.07,12.81.22,26.14-.5,38.9-.26,4.67-.45,14.11-1.76,18.17-1.36,4.21-7.54,4.03-9.93.95-9.42-16.32-19.86-32.14-29.27-48.45-1.13-1.96-2.64-4.11-2.91-6.31l-.99.74c.16,7.97-.2,15.97-.02,23.94.12,5.49-.17,14.04,2,18.92s6.63,5.06,7.92,7.52c4.2,8.05-8.51,4.31-12.12,4.15-4.65-.2-10.36,1.39-14.47,1.05-1.99-.17-3.36-1.34-3.75-3.31.36-3.4,3.8-3.8,5.94-5.48,3.56-2.77,4.27-8.61,4.55-12.89.83-13.08.88-32.8-.03-45.85-.29-4.19-.8-8.45-4.23-11.21-2.15-1.73-5.75-2.1-4.52-6,1.29-4.1,5.89-1.76,8.56-1.53,2.27.19,5.82.56,7.93.58,3.33.03,8.1-1.02,11.46-.94,4.38.1.96,6.96,1.2,9.64.11,1.21,1.05,3.25,1.58,4.42,4.55,10.02,12.5,20.94,17.96,30.86,1.3,2.36,2.39,5.51,3.78,7.66.32.49-.06.88,1.12.64-.57-10.31.76-21.41,0-31.63h.01Z"/>
  <path class="st0" d="M81.78,202.95c2.67,4.92,1.91,18.94-3.07,21.95-5.31,3.21-6.51-4.05-8.91-7.24-5.94-7.9-20.32-8.15-21.35,3.88-.33,3.87-.5,13.3,0,16.98.67,5,10.27,3.29,13.48.48,1.37-1.2,6.19-7.92,7.36-2.39.81,3.84,1.2,16.02.58,19.79-.16.97-.84,2.4-1.82,2.69-5.99.78-3.75-5.51-8.47-7.29-2.09-.79-6.62-.89-8.89-.63-2.07.24-2.08,1.46-2.24,3.24-.67,7.62.37,16.48.25,24.21,1.43,4.67,11.54,3.73,15.21,2.7,3.44-.97,7.31-3.77,8.9-7.04.98-2.02.77-4.86,2.92-6.06,3.45-1.04,5.83,4.92,6.13,7.64.44,3.94-1.07,15.62-6.22,15.71-1.78.03-4.5-.94-6.47-1.03-9.57-.41-19.47.11-28.89.04-2.76-.02-12.77.47-14.41-.57-1.29-.82-1.54-2.46-.97-3.81.79-1.85,5.94-2.63,6.65-7.84-.29-17.15,2.03-36.88.52-53.82-.42-4.7-2.59-7.52-7.49-7.21,2.26-8.06,13.64-13.02,21.3-14.32,10.91-1.85,18.52,2.75,27.79,2.39,3.48-.13,4.91-2.48,8.14-2.45h-.03Z"/>
  <path class="st0" d="M362.32,184.95l-8.96-2.75c-18.41-7.86-25.8-34.81-48.6-33.14-15.16,1.11-20.45,18.79-8.07,27.53,4.33,3.06,9.58,4.43,14.05.87,7.8-6.22.26-18.27-6.24-12.72-4.28,3.66,1.23,3.98,2.07,4.96,2.99,3.47-5.78,5.51-6.54-.93-1.35-11.51,15.1-10.56,16.83-.39,1.77,10.44-8.32,16.43-17.5,13.02-18.37-6.82-15.48-33.28,4.42-35.3,30.25-3.06,34.54,39.42,69.24,36.85,29.23-2.16,34.97-37.74,6.33-44.68-17.12-4.15-32.73,9.77-23.78,26.77,7.13,13.56,28.35,10.32,26.13-5.71-.89-6.43-10.68-11.2-12.41-2.79l3.28.47c.7,5.79-6.35,5.07-6.23-.66.18-8.08,10.36-9.66,15.39-3.53,7.15,8.73,1.04,22.05-9.83,23.52-22.23,3-30.48-29.71-9.69-39.58,10.13-4.81,26-1.21,33.49,7.07,5.26,5.81,6.05,13.67,4.97,21.19,10-10.37,28.86-3.01,25.79,12.09-1.1,5.41-9.5,7.99-14.2,6.46-6.97-2.27-6.81-13.83,2.14-12.6,3.67.5,4.6,5.51.57,4.53-.67-.16-1.18-3.75-3.84-.77s1.2,6.83,4.72,6.75c12.06-.26,9.29-17.39-1.97-18.45-14.21-1.34-18.87,18.92-32.13,20.93l.49.75,51.52.19c5.8-.79,3.79-5.11,6.81-8.14,4.87-4.9,11.06,1.97,5.96,5.96-1.28,1-1.96.83-3.28,1.21-.72.21-.87-.29-.73,1,10.83,1.73,3.34,14.54-2.71,6.45-.7-.93-1.17-2.9-1.99-3.49-1.82-1.32-6.69,0-8.98.06-47.97,1.04-97.02.07-144.99-.42-2.66-.03-9.65,2.35-8-2.63l.6-.39c5.11.22,10.25.7,15.38.43.56-.03,1.37.33,1.23-.49-8.92-2.4-13.92-13.26-23.64-13.97-5.81-.42-12.41,2.42-11.69,9.18.84,8.02,10.95,4.46,7.69.8-.76-.85-4.63-.61-2.75-3.24,4.29-4.12,11,8.51,1.63,10.09-9.22,1.56-12.08-10.69-5.86-16.32,6.22-5.63,14.98-3.77,21.12.29,8.92,5.9,11.65,12.32,24.19,13.17,5.57.38,19.61-1.05,21.93-7,2.34-6.01-1.22-3.06-2.92-3.52-1.27-.34-.77-2.39.02-2.99,11.83-2.61,5.5,14.33-2.83,13.49-.23,1.94.81.5,1.25.5h41.1l.02.02Z"/>
  <path class="st0" d="M227.56,184.95l.51.48c.66,1.71.26,2.33-1.49,2.53-7.34.85-18.18,0-25.95,0-41.17.03-82.8.52-124-.54-1.94-.05-10.05-.33-10.99.51-.65.58-1.24,3.01-2,3.97-4.64,5.82-12.1-1.69-5.89-5.39.89-.53,6.46-1.74,3.17-2.8-2.39-.77-3.99-.32-5.23-3.26-2.25-5.3,4.18-7.52,7.49-3.5,1.52,1.85,1.72,5.28,2.73,6.24s8.36,1.66,10.19,1.77c15.24.85,31.28-.67,46.6-.03l-6.48-2.73c-10.19-5.01-13.89-21.41-27.52-19.07-12.25,2.1-12.18,19.83.35,17.79,2.65-.43,5.89-4.4,3.05-6.48-2.23-1.64-5.14,3.68-6.2-1.12,6.18-8.11,15.18,3.78,7.08,9.04-6.79,4.41-16.23-1.02-16.12-9.11.18-13.48,17.94-17.09,26.41-8.24-8.35-24.26,28.62-40.08,44.12-24.43,15.28,15.43-2.05,44.91-21.36,33.81-12.54-7.21-7.37-28.26,6.17-25.11,7.23,1.69,6.24,12.54.74,11.75-1.36-.22-3.01-2.25-2.06-3.54l2.79-.69c1.38-.87-.51-3.33-1.55-3.96-6.34-3.83-13.46,7.59-8.85,14.82,7.33,11.48,24.78,4.77,26.27-7.94,3.74-31.89-41.95-26.66-44.28-3.43-2.21,22.07,21.97,31.04,40.12,24.67,21.19-7.43,33.3-43.97,60-33.64,20.83,8.06,10.36,37.78-8.49,34.89-9.92-1.52-14.68-14.27-6.12-20.12,6.07-4.14,14.24-.06,12.51,7.53-.73,3.2-6.03,4.61-6.82,2.01-1.06-3.48,3.67-2.84,3.9-3.94-.72-4.36-5-5.45-8.4-2.92-5.25,3.89-2.06,13.07,3.92,14.45,17.36,4.02,26.62-24.06,7.52-29.44-23.77-6.7-33.38,21.57-50.4,30.82l-10.39,4.31h40.1c.44,0,1.48,1.44,1.25-.5-5.52.25-12.06-6.97-8.89-12.13,1.91-3.12,8.16-2.7,6.36,1.64l-3.12-.42c-2.93,2.52.99,6.51,3.5,7.83,7.7,4.05,19.93,3.87,27.9.68,9.19-3.68,14.88-14.56,25.82-14.57,8.19,0,16.5,7.24,12.8,15.82s-16.99,3.63-11.97-4.5c1.85-2.99,6.19-3.15,5.17,1.19h-2.74c-1.89,5.28,5.11,6.46,7.21,1.98,2.98-6.37-3.69-11.1-9.45-11.48-8.37-.55-12.76,5.03-18.47,9.97l-6.71,4.5h16.19v.03Z"/>
  <path class="st0" d="M106.26,240.74c1.2,1.05,4.18-3.96,4.98-4.73,7.97-7.64,23.97-7.08,27.06,4.82,2.74,10.56-.77,25.65.89,37.47.74,5.25,4.65,6.04,5.31,8.65,1.52,5.99-4.99,3.65-8.09,3.59-3.95-.07-14.38.75-17.33-.61-4.65-2.14,1.38-5.69,2.63-7.07,1.63-1.8,1.82-4.55,1.99-6.98.39-5.49.69-24.14-.86-28.57-2.88-8.2-15.14-4.8-16.11,3.13-.71,5.79-.62,22.02.07,27.85.74,6.25,5.29,5.49,6.56,8.41s-1.89,4.14-4.35,4.36c-7.23.67-14.69-1.17-21.96-.49l-1.77-.72c-1.98-2.49,2.95-5.65,4.25-7.81,2.09-3.48,1.04-5.94,1.26-9.7.44-7.47,1.23-16.99.54-24.41-.61-6.52-6.99-5.39-7.03-8.93s3.47-2.85,5.91-3.61,11.82-4.74,13.2-4.54c3.22.48,3.7,7.35,2.85,9.87v.02Z"/>
  <path class="st0" d="M396.59,230.43c34.23-1.86,38.35,53.16,7.58,60.38-43.06,10.11-46.63-58.25-7.58-60.38ZM394.07,238.86c-10.4,2.13-8.91,26.34-6.7,33.87,2.17,7.38,8.55,13.41,16.05,7.86,9.32-6.9,8.88-45.46-9.35-41.73h0Z"/>
  <path class="st0" d="M255.34,264.28c-1.92,1.66.48,7.97,1.67,9.8,4.78,7.33,16.09,7.83,22.15,1.81,1.43-1.42,3.31-6.28,5.75-4.3,2.29,1.85-.41,8.21-1.7,10.35-8.63,14.43-31.5,11.53-39.66-1.88-7.36-12.09-5.26-33.12,5.68-42.56,12.75-11.01,35.8-8.9,37.81,10.53,1.11,10.77-5.21,14.81-15.14,15.62-2.96.24-15.12-.62-16.56.63h0ZM270.48,252.52c3.11-3.29,2.32-11.82-2.45-13.39-8.81-2.89-14.86,9.28-12.85,16.34,4.23.58,12.17.37,15.3-2.95h0Z"/>
  <path class="st0" d="M464.61,248.54c-2.12-2.14-2.66-5.73-5.88-8.31-8.17-6.55-17.62,2.77-7.4,9.39,9.61,6.22,23.65,6.51,24.1,22.24.73,25.6-44.1,25.19-44.26,5-.02-2.86,1.2-8,4.35-9,5.55-1.77,6.45,7.11,9.28,10.7,4.93,6.24,16.55,6.23,16.65-2.69.08-7.2-11.64-9.41-16.79-12.12-8.32-4.4-12-8.92-11.13-18.79.85-9.7,10.31-15.65,19.64-14.62,2.55.28,6.37,2.32,8.51,2.36,2.58.04,9.67-4.55,10.26.3.3,2.51-.86,3.91-1.03,6-.26,3.23,1.03,7.63-1.47,9.99-1.72,1.62-3.23,1.18-4.84-.44h0Z"/>
  <path class="st0" d="M208.88,240.74l1.53-.31c2.3-7.61,13.6-12.46,20.35-7.88,9.46,6.41,2.56,28.02-9.68,19.65-1.16-1.92,1.73-5.84-1.48-8.49-2.63-2.16-5.74-.4-7.73,1.76-2.25,2.44-2.79,5.73-3.01,8.94-.4,5.7-.67,17.98.06,23.39.8,5.85,7.07,5.41,7.85,10.89-.6,3.95-7.59,1.89-10.11,1.84-3.95-.08-14.24.77-17.24-.2-1.55-.5-2.32-2.39-1.88-3.9.59-2.05,5.14-2.43,5.86-6.62,1.17-6.74,1.35-25.99.54-32.86-.59-5-8.45-5.37-6.91-9.87.46-1.33,6.24-1.95,8-2.47,2.13-.63,9.13-3.56,10.58-3.36,2.95.41,3.64,7.07,3.26,9.48h0Z"/>
  <path class="st0" d="M183.34,233.9c.93.97.42,3.28-.15,4.32-2.26,4.09-12.37,1.87-13.41,4.02-.91,1.87.23,4.32.27,6.21.2,8.59-.81,18.61-.04,26.94.15,1.65.38,3.58,2.14,4.34,4.58,1.98,7.82-3.14,9.98-2.55,3.15.86.29,6.24-.93,7.86-6.26,8.32-24.54,9.44-26.06-3.25-1.4-11.73,1.11-25.63-.27-37.59-.63-4.98-10.64-2.43-7.92-8.81.25-.6,6.52-4.3,7.9-5.58,1.29-1.2,3.03-3.34,4.21-4.76,1.66-2.01,4.94-8.03,7.23-8.25,7.08-.66,1.32,11.67,3.7,14.78,2,2.61,10.93-.21,13.36,2.33h-.01Z"/>
  <path class="st0" d="M272.16,135.13c1.68-1.15,2.98,7.3,6.75,4.51,1.34-.99,4.78-7.61,5.08-9.37.25-1.47.32-4.38.09-5.83-.5-3.19-3.86-3.52-5.45-5.75,6.86-.97,9.64,3.81,9.97,9.96,1.87-2.76,7-6.2,10.34-4.61,5.23,2.49-4.07,4.06-5.55,4.68-7.02,2.96-9.26,10.67-15.02,14.87l-30.4-1.01-23.28,1.44c-5.04-4.8-6.83-11.67-13.47-14.96-1.88-.93-7.63-1.64-7.63-3.65.95-3.29,6.44-1.89,8.53-.25,1.33,1.04,1.82,2.65,3.24,3.48-.69-5.91,5.14-11.52,10.96-9.96-2.1,1.81-5.93,3.12-6.44,6.25s2.52,13.56,5.46,14.91c3.97,1.83,4.14-4.84,6.63-4.18,1.39.37,2.58,4.88,5.54,4.45,1.25-.18,4.33-5.03,4.78-6.48,2.12-1.46,3.68,7.27,7.37,2.15,2.76-3.84-.16-5.1-1.43-8.86-1.3-3.83-1.51-11.96,4.21-11.22,5.05.65,4.43,8.29,3.44,11.86-.76,2.75-3.25,3.81-2.26,6.42,3.06,8.09,6.35-.84,7.33-.85,1.77,1.11,4,7.38,5.88,7.36,1.99-.02,4.88-3.46,5.34-5.38v.02Z"/>
  <path class="st0" d="M279.03,349.93c1.31,3.58,3.09,11.87,5.81,14.37.66.61,5.08,2.37,1.4,3.4-2.21.62-3.16-2.6-5.09-3.19s-4.29.4-5.74-1.24c-2.53-2.87,2.23-5.17,2.25-6.2-2.78-5.26-6.57,2.35-7.51,5.22-.59.43-3.07-2.17-3.49-2.73-1.03-1.38-.75-3.41-2.74-3.29-2.03-.08-2.03,2.2-3.02,3.51-1.6,2.11-4.04,4.47-6.68,2.27,4.19-2.26-.07-7.39-3.12-6.62-3.43.87-4.82,5.09-1.38,7.12-5.1,1.53-7.04-4.14-10.24-6.71-2.5,1.84-2.11,5.33-6.19,5.96-.8-2.34-3.48-8.67-6.68-6.43-2.57,1.8,2.65,3.15,1.47,6.95-.97,3.11-3.76,1.44-5.91,2.07-.77.23-5.25,5.47-6.27,2.57v-1.62c6.73-2.33,5.9-10.87,9.24-16.02l53.87.61h.02Z"/>
  <path class="st0" d="M279.01,153.68c2.31,2.31-.17,10.3-5.83,6.58-1.37-.9-1.16-2.91-2.73-3.19-2.5.54-4.95,12.41-9.22.2l-1.46-.16-6.52,10.17c-1.16,1.13-1.43.98-2.45-.08-2.06-2.14-4.2-6.91-5.88-9.51-2.13-3.3-3.07,2.61-3.92,3.82-3.68,5.27-5.08-4.39-7.03-4.91s-1.68,3.7-5.41,3.97c-5.56.39-5.02-6.53-2.62-7.64,1.28-.59,8.27-1.25,10.11-1.35,9.22-.52,18.72.08,27.87.51,3,.14,13.14-.37,15.1,1.59h-.01Z"/>
  <path class="st0" d="M251.58,316.02c2.78-.73,3.62,5.9,5.47,6.38,2.52.66,3.52-4.89,4.98-5.34,1.89-.58,4.2-.14,5.08,1.75.49,1.96-4.65,5.02-5.55,7.24-2.08,5.18,1.64,7.04-7.07,7.37-1.46.06-10.53-.42-11.24-.77-1.62-.79-.75-4.4-1.23-6.24-.84-3.25-5.8-4.52-4.37-7.82.74-1.71,2.58-2.05,4.26-1.53,1.51.47,2.49,6.39,5.52,5.35.84-.29,1.42-5.68,4.14-6.39h.01Z"/>
  <path class="st0" d="M397.55,203.99c5.69-1.34,10.77,4.14,9.13,9.63-1.41,4.73-9.34,10.8-13.79,12.61-9.61,3.91-2.21-4.82-.8-8.27s1.92-9.74,3.49-12.45c.5-.87.96-1.29,1.96-1.52h.01Z"/>
  <path class="st0" d="M263.11,386.64l.28-2.95c4.56-2.23,3.78,3.36,1.27,5.25-3.97,3-6.22-.49-9.95-1.23,1.87,3.67,1.18,7.64-3.27,8.44-1.73-.09-3.31-3.62-3.25-5.19.03-.94,1.56-3.02.27-3.25-.39-.07-3.82,2.58-6.72,2.29-3.89-.38-6.5-5.83-2.24-6.81,2.07.16.3,3.09,2.74,3.82,3.07.92,6.57-4.08,7.26-6.75.63-2.45-.11-5.33,2.46-6.99,2.95,4.6,3.04,15.84,11.14,13.37h.01Z"/>
  <path class="st0" d="M224.82,345.86l.31-3.52c12.27,0,24.55.09,36.83.05,2.24,0,4.69-.57,6.95-.56,3.27.02,6.8,1,10.21.54l-.5,3.48h-53.8Z"/>
  <path class="st0" d="M278.05,149.5l-52.73.07v-3.49h52.06c1.88.26,1.27,2.12.67,3.41h0Z"/>
  <path class="st0" d="M460.1,181.31c1.59,1.27,7.16.11,6.86,3.36-.76,2.89-4.22,1.81-6.15,2.37-1.36.39-2.04,2.8-4.7,3.27-9.1,1.59-9.48-13.12.08-11.82,2.59.35,2.72,1.87,3.92,2.82h0Z"/>
  <path class="st0" d="M43.35,323.59c-1.43-1.16-7.87.07-6.77-3.78.7-2.45,4.49-1.49,6.06-1.94,1.36-.39,2.59-3.32,5.58-3.32,8.52,0,7.6,13.95-1.89,11.78-2.03-.47-2.08-2-2.99-2.73h0Z"/>
  <path class="st0" d="M37.15,183.08c1.25-1.36,4.54-.89,5.95-1.63,1.6-.84,1.32-3.36,5.55-2.96,7.46.71,6.98,13.31-1.9,11.9-2.4-.38-2.95-2.62-4.27-3.2-1.09-.48-8.66-.49-5.33-4.11h0Z"/>
  <path class="st0" d="M453.35,315.09c4.73-.97,4.23,1.44,6.6,2.56,1.66.78,4.77-.66,6.43,2.13,2.09,3.53-4.45,2.7-5.92,3.41-1.09.52-.9,2.42-3.45,3.03-9.27,2.21-10.51-9.72-3.66-11.12h0Z"/>
  <path class="st0" d="M274.63,365.3c.64.96-.55,2.86-1.84,2.87-8.43.22-16.88,1.46-25.32,1.13-2.95-.11-6.46-.77-9.45-1.01-2.72-.22-11.06,1.16-8.64-3.42,2.2-.68,4.14.74,6.15.92,10.52.94,23.32.59,33.87-.01.94-.05,4.72-1.24,5.23-.48h0Z"/>
  <path class="st0" d="M265.18,135.62c1.03-2.48,3.34-3.64,4.38-6.33,1.15-2.99,3.04-10.71-1.25-12-2.91-.87-5.87,2.49-8.61.15,4.2-3.47,14.35-3.62,15.4,3.02.86,5.45-3.48,15.67-9.93,15.16h0Z"/>
  <path class="st0" d="M237.78,136.12c-1.98,1.55-6.92-6.13-7.57-7.63-3.74-8.59-.13-15,9.69-13.18,1.71.32,5.67,2.7,2.63,3.17-2.21.35-5.99-3.71-8.74.45-2.33,3.51-.31,9.01,1.58,12.36.59,1.05,3.7,3.8,2.4,4.82h.01Z"/>
  <path class="st0" d="M297.49,376.81c1.12.71.63,3.32-1.06,4.04-3.38,1.44-8.02-1.44-10.59-3.59l-7.71-9.47c.72-.03,1.19-.59,1.97-.27,2.25.92,6.15,8.36,10.61,9.85,2.91.97,5.61-1.29,6.78-.55h0Z"/>
  <path class="st0" d="M279.49,379.86c3.11,3.3-4.03,8.46-9.09,3.37-1.43-1.44-3.26-4.85-3.61-6.85-.16-.96-.58-4.95,1.39-3.88,1.31.71,1.86,8.34,5.47,9.98,2.75,1.25,1.43-1.58,1.48-2.5.1-2.09,3.51-1.03,4.37-.12h-.01Z"/>
  <path class="st0" d="M227.76,379.29l-.22,2.94c5.03,1.9,6.49-6.42,7.25-9.97,4.57,1.44.65,8.35-1.51,10.69s-3.52,2.73-6.68,2.22c-4.66-.75-3.42-7.72,1.16-5.89h0Z"/>
  <path class="st0" d="M224.32,368.28c.39.35-3.71,6.26-4.28,6.93-1.94,2.28-11.86,8.58-13.91,5.03-1.33-5.93,2.49-2.15,4.49-2.21s6.07-2.78,7.47-4.27c1.99-2.12,2.95-6.18,6.22-5.48h0Z"/>
  <path class="st0" d="M252.61,106.32c4.12-.18,6.23,7.21.81,7.87-7.75.95-8.38-7.54-.81-7.87Z"/>
  <path class="st0" d="M253.22,101.25c.29.28,4.63-.97,4.37,2.16-.27,3.26-6.73,1.05-9.09,2.32-1.35-.12-1.98-1.52-1.78-2.73.39-2.39,3.98-.35,4.47-2.07.25-.89-1.2-4.05.04-5.66,3.76-.01,2.17,3.5,1.99,5.97h0Z"/>
  <path class="st0" d="M269.66,122.68l-1.33,2.51c-1.85-.27-12.37,1.31-9.41-3.04.77-1.14,8.85.82,10.74.53Z"/>
  <polygon class="st0" points="245.25 122.18 245.25 125.16 235.78 125.16 235.29 122.18 245.25 122.18"/>
  <path class="st0" d="M252.71,397.17c.7,2.12,2.81,5.16.29,7.01-3.95,2.89-4.55-6.58-.29-7.01Z"/>
  <path class="st0" d="M259.3,375.63c-.72-.67-.22-2.88.36-3.64,8.9-1.78,3.51,7.24-.36,3.64Z"/>
  <path class="st0" d="M243.63,375.62c-3.96,2.83-6.89-4.24-2.82-4.09,2.81.1,4.4,1.3,2.82,4.09Z"/>
  <polygon class="st0" points="227.32 125.16 227.26 127.6 222.33 128.16 222.36 125.69 227.32 125.16"/>
  <path class="st0" d="M278.19,127.59l-.06-2.43c2.36-.37,5.53,1.04,3.26,3.41l-3.19-.98h-.01Z"/>
</svg>